<svg width="600" height="600" viewBox="0 0 600 600" fill="none" xmlns="http://www.w3.org/2000/svg">
<path fill-rule="evenodd" clip-rule="evenodd" d="M154 128C139.641 128 128 139.641 128 154V446C128 460.359 139.641 472 154 472H446C460.359 472 472 460.359 472 446V154C472 139.641 460.359 128 446 128H382V346.939C382 352.798 375.91 356.669 370.605 354.183L330.186 335.236L307.311 325.07C302.656 323.001 297.344 323.001 292.69 325.07L269.814 335.236L229.395 354.183C224.09 356.669 218 352.798 218 346.939L218 128H154ZM446 100C475.823 100 500 124.177 500 154V446C500 475.823 475.823 500 446 500H154C124.177 500 100 475.823 100 446V154C100 124.177 124.177 100 154 100H446Z" fill="#4EC1FC"/>
</svg>
